<?xml version="1.0" standalone="no"?>
<!DOCTYPE svg PUBLIC "-//W3C//DTD SVG 20010904//EN"
 "http://www.w3.org/TR/2001/REC-SVG-20010904/DTD/svg10.dtd">
<svg version="1.0" xmlns="http://www.w3.org/2000/svg"
 width="512.000000pt" height="512.000000pt" viewBox="0 0 512.000000 512.000000"
 preserveAspectRatio="xMidYMid meet">
<metadata>
Created by potrace 1.14, written by Peter Selinger 2001-2017
</metadata>
<g transform="translate(0.000000,512.000000) scale(0.100000,-0.100000)"
fill="#000000" stroke="none">
<path d="M2810 3653 c-14 -9 -31 -24 -37 -33 -10 -12 -47 -116 -59 -165 -7
-29 -60 -204 -91 -305 -20 -63 -38 -119 -39 -125 -1 -5 -14 -48 -29 -95 -15
-47 -31 -98 -35 -115 -4 -16 -22 -75 -40 -130 -17 -55 -33 -107 -35 -115 -2
-8 -4 -16 -5 -17 -2 -2 -3 -6 -4 -10 -15 -58 -60 -206 -121 -403 -13 -41 -37
-122 -55 -180 -17 -58 -34 -112 -37 -120 -3 -8 -7 -20 -8 -26 -2 -7 -17 -57
-35 -111 -17 -55 -33 -108 -35 -119 -2 -10 -4 -21 -5 -24 -7 -18 5 -69 22 -93
18 -25 60 -43 96 -40 6 0 20 1 31 2 42 3 96 97 117 206 2 11 8 31 13 45 5 14
22 68 36 120 15 52 29 102 31 110 3 8 5 16 5 17 0 2 7 22 15 45 9 24 26 79 39
123 13 44 44 148 70 230 39 126 62 202 79 260 25 91 122 403 134 435 5 14 10
30 11 35 0 6 10 39 22 75 12 36 22 72 24 80 2 8 21 72 43 142 22 70 37 130 34
133 -3 3 0 5 7 5 8 0 11 7 7 15 -3 8 -2 15 3 15 12 0 -6 89 -21 108 -16 19
-71 42 -100 42 -13 0 -35 -8 -48 -17z"/>
<path d="M3175 3348 c-46 -22 -74 -94 -55 -143 12 -31 41 -65 56 -65 7 0 14
-4 16 -9 2 -5 17 -17 35 -27 18 -11 179 -118 359 -239 349 -235 355 -240 403
-270 17 -10 31 -23 31 -27 0 -4 -13 -15 -30 -25 -16 -9 -30 -21 -30 -26 0 -4
-4 -5 -10 -2 -5 3 -10 2 -10 -2 0 -5 -32 -31 -71 -58 -39 -28 -76 -55 -82 -61
-7 -5 -59 -43 -117 -83 -58 -41 -106 -78 -108 -82 -2 -5 -8 -9 -14 -9 -5 0
-28 -15 -51 -34 -23 -19 -109 -82 -191 -140 -170 -121 -196 -149 -191 -209 3
-55 57 -107 111 -107 35 0 94 26 94 42 0 4 6 8 14 8 8 0 16 3 18 8 2 4 44 36
93 71 50 35 113 81 140 101 28 20 93 68 145 106 52 39 167 122 255 184 88 63
162 117 165 121 3 3 43 32 89 64 90 63 112 95 105 154 -2 19 -14 46 -27 59
-24 26 -164 122 -177 122 -5 0 -10 4 -12 8 -1 4 -194 136 -428 292 -370 248
-430 285 -465 286 -22 1 -49 -3 -60 -8z"/>
<path d="M1681 3215 c-94 -63 -175 -115 -180 -115 -5 0 -11 -3 -13 -7 -3 -9
-30 -27 -235 -165 -72 -48 -136 -88 -142 -88 -6 0 -11 -5 -11 -10 0 -6 -8 -14
-17 -18 -18 -7 -103 -62 -113 -72 -3 -3 -39 -27 -80 -54 -107 -69 -129 -106
-109 -179 11 -40 -35 -7 597 -429 255 -171 476 -313 490 -317 42 -12 86 7 121
52 17 22 23 85 9 111 -13 23 -54 60 -88 78 -14 7 -27 16 -30 19 -3 3 -176 120
-385 259 -209 139 -383 255 -387 259 -4 4 36 36 90 71 90 61 171 117 199 140
7 6 15 10 18 10 7 0 87 52 103 67 7 7 17 13 22 13 5 0 15 6 22 13 15 14 275
189 292 197 29 13 125 86 136 104 22 34 20 93 -4 124 -33 43 -48 51 -92 52
-36 0 -62 -14 -213 -115z"/>
</g>
</svg>
